<?xml version="1.0" encoding="utf-8" ?>
<svg baseProfile="full" height="230.0" version="1.1" viewBox="0 0 240.0 230.0" width="240.0" xmlns="http://www.w3.org/2000/svg" xmlns:ev="http://www.w3.org/2001/xml-events" xmlns:xlink="http://www.w3.org/1999/xlink"><defs /><polyline fill="none" fill-opacity="1" points="25.0,15.0 47.0,15.0 55.0,35.0" stroke="rgb(0,0,0)" stroke-width="0.25mm" /><defs /><polyline fill="none" fill-opacity="1" points="25.0,215.0 47.0,215.0 55.0,195.0" stroke="rgb(0,0,0)" stroke-width="0.25mm" /><defs /><polyline fill="none" fill-opacity="1" points="177.0,35.0 185.0,15.0 205.0,15.0" stroke="rgb(0,0,0)" stroke-width="0.25mm" /><defs /><polygon fill="rgb(255,255,255)" fill-opacity="1" points="115.0,15.0 95.0,17.0 75.0,23.0 55.0,35.0 35.0,55.0 23.0,75.0 17.0,95.0 15.0,115.0 17.0,135.0 213.0,135.0 215.0,115.0 213.0,95.0 207.0,75.0 195.0,55.0 175.0,35.0 155.0,23.0 135.0,17.0 115.0,15.0" stroke="rgb(0,0,255)" stroke-width="0.25mm" /><defs /><ellipse cx="115.0" cy="115.0" fill="rgb(85,170,255)" fill-opacity="1" rx="100.0" ry="100.0" stroke="rgb(0,0,255)" stroke-width="0.25mm" /><defs /><polyline fill="none" fill-opacity="1" points="175.0,195.0 187.0,215.0 205.0,215.0" stroke="rgb(0,0,0)" stroke-width="0.25mm" /><defs /><polygon fill="rgb(170,213,255)" fill-opacity="1" points="115.0,15.0 95.0,17.0 75.0,23.0 55.0,35.0 35.0,55.0 23.0,75.0 17.0,95.0 15.0,115.0 17.0,135.0 213.0,135.0 215.0,115.0 213.0,95.0 207.0,75.0 195.0,55.0 175.0,35.0 155.0,23.0 135.0,17.0 115.0,15.0" stroke="rgb(0,0,255)" stroke-width="0.25mm" /><defs /><g id="Ce1"><rect fill="rgb(0,0,255)" fill-opacity="1" height="20.0" rx="0.0" ry="0.0" stroke="rgb(0,0,255)" stroke-width="0.25mm" width="20.0" x="5.0" y="5.0" /><defs /><g display="none" id="info"><text id="name">Ce1</text><text id="type">ThermoSysPro.WaterSteam.Connectors.FluidInlet</text><text id="classDesc">Water/steam inlet fluid connector</text><text id="desc">Feedwater input 1</text></g></g><g id="Cm"><rect fill="rgb(0,0,255)" fill-opacity="1" height="20.0" rx="0.0" ry="0.0" stroke="rgb(0,0,255)" stroke-width="0.25mm" width="20.0" x="205.0" y="205.0" /><defs /><g display="none" id="info"><text id="name">Cm</text><text id="type">ThermoSysPro.WaterSteam.Connectors.FluidInlet</text><text id="classDesc">Water/steam inlet fluid connector</text><text id="desc">Evaporation loop outlet</text></g></g><g id="Cd"><rect fill="rgb(255,0,0)" fill-opacity="1" height="20.0" rx="0.0" ry="0.0" stroke="rgb(0,0,255)" stroke-width="0.25mm" width="20.0" x="5.0" y="205.0" /><defs /><g display="none" id="info"><text id="name">Cd</text><text id="type">ThermoSysPro.WaterSteam.Connectors.FluidOutlet</text><text id="classDesc">Water/steam outlet fluid connector</text><text id="desc">Evaporation loop inlet</text></g></g><g id="Cv"><rect fill="rgb(255,0,0)" fill-opacity="1" height="20.0" rx="0.0" ry="0.0" stroke="rgb(0,0,255)" stroke-width="0.25mm" width="20.0" x="205.0" y="5.0" /><defs /><g display="none" id="info"><text id="name">Cv</text><text id="type">ThermoSysPro.WaterSteam.Connectors.FluidOutlet</text><text id="classDesc">Water/steam outlet fluid connector</text><text id="desc">Steam outlet</text></g></g><g id="yLevel"><polygon fill="rgb(0,255,255)" fill-opacity="1" points="215.0,105.0 215.0,125.0 235.0,115.0 215.0,105.0" stroke="rgb(0,0,255)" stroke-width="0.25mm" /><defs /><g display="none" id="info"><text id="name">yLevel</text><text id="type">ThermoSysPro.InstrumentationAndControl.Connectors.OutputReal</text><text id="classDesc" /><text id="desc">Water level </text></g></g><g id="Cth"><rect fill="url(#0)" height="20.0" rx="0.0" ry="0.0" stroke="rgb(0,0,0)" stroke-width="0.25mm" width="20.0" x="105.0" y="155.0" /><defs><radialGradient cx="50%" cy="50%" fx="50%" fy="50%" id="0" r="0.9"><stop offset="0" stop-color="rgb(255, 127, 0)" stop-opacity="1" /><stop offset="1" stop-color="rgb(0, 0, 0)" stop-opacity="1" /></radialGradient></defs><g display="none" id="info"><text id="name">Cth</text><text id="type">ThermoSysPro.Thermal.Connectors.ThermalPort</text><text id="classDesc">Thermal connector</text><text id="desc">Thermal input to the liquid</text></g></g><g id="Cex"><rect fill="url(#1)" height="20.0" rx="0.0" ry="0.0" stroke="rgb(0,0,0)" stroke-width="0.25mm" width="20.0" x="105.0" y="5.0" /><defs><radialGradient cx="50%" cy="50%" fx="50%" fy="50%" id="1" r="0.9"><stop offset="0" stop-color="rgb(255, 127, 0)" stop-opacity="1" /><stop offset="1" stop-color="rgb(0, 0, 0)" stop-opacity="1" /></radialGradient></defs><g display="none" id="info"><text id="name">Cex</text><text id="type">ThermoSysPro.Thermal.Connectors.ThermalPort</text><text id="classDesc">Thermal connector</text><text id="desc">Thermal input to the wall</text></g></g><g id="Ce2"><rect fill="rgb(0,0,255)" fill-opacity="1" height="20.0" rx="0.0" ry="0.0" stroke="rgb(0,0,255)" stroke-width="0.25mm" width="20.0" x="5.0" y="65.0" /><defs /><g display="none" id="info"><text id="name">Ce2</text><text id="type">ThermoSysPro.WaterSteam.Connectors.FluidInlet</text><text id="classDesc">Water/steam inlet fluid connector</text><text id="desc">Feedwater input 2</text></g></g><g id="Ce3"><rect fill="rgb(0,0,255)" fill-opacity="1" height="20.0" rx="0.0" ry="0.0" stroke="rgb(0,0,255)" stroke-width="0.25mm" width="20.0" x="5.0" y="145.0" /><defs /><g display="none" id="info"><text id="name">Ce3</text><text id="type">ThermoSysPro.WaterSteam.Connectors.FluidInlet</text><text id="classDesc">Water/steam inlet fluid connector</text><text id="desc">Feedwater input 3</text></g></g><g id="Cs"><rect fill="rgb(255,0,0)" fill-opacity="1" height="20.0" rx="0.0" ry="0.0" stroke="rgb(0,0,255)" stroke-width="0.25mm" width="20.0" x="205.0" y="145.0" /><defs /><g display="none" id="info"><text id="name">Cs</text><text id="type">ThermoSysPro.WaterSteam.Connectors.FluidOutlet</text><text id="classDesc">Water/steam outlet fluid connector</text><text id="desc">Water outlet</text></g></g></svg>