<?xml version="1.0" encoding="utf-8" ?>
<svg baseProfile="full" height="230.0" version="1.1" viewBox="0 0 232.0 230.0" width="232.0" xmlns="http://www.w3.org/2000/svg" xmlns:ev="http://www.w3.org/2001/xml-events" xmlns:xlink="http://www.w3.org/1999/xlink"><defs /><rect fill="rgb(85,170,255)" fill-opacity="1" height="90.0" rx="0.0" ry="0.0" stroke="rgb(0,0,255)" stroke-width="0.25mm" width="26.0" x="15.0" y="115.0" /><defs /><rect fill="rgb(170,213,255)" fill-opacity="1" height="6.0" rx="0.0" ry="0.0" stroke="rgb(0,0,255)" stroke-width="0.25mm" width="60.0" x="115.0" y="123.0" /><defs /><rect fill="rgb(255,170,170)" fill-opacity="1" height="6.0" rx="0.0" ry="0.0" stroke="rgb(0,0,255)" stroke-width="0.25mm" width="90.0" x="41.0" y="101.0" /><defs /><rect fill="rgb(170,213,255)" fill-opacity="1" height="6.0" rx="0.0" ry="0.0" stroke="rgb(0,0,255)" stroke-width="0.25mm" width="44.0" x="131.0" y="101.0" /><defs /><polyline fill="none" fill-opacity="1" points="175.0,205.0 15.0,205.0" stroke="rgb(0,0,255)" stroke-width="0.5mm" /><defs /><polyline fill="none" fill-opacity="1" points="175.0,25.0 15.0,25.0" stroke="rgb(0,0,255)" stroke-width="0.5mm" /><defs /><polyline fill="none" fill-opacity="1" points="15.0,115.0 191.0,115.0" stroke="rgb(0,0,255)" stroke-width="0.5mm" /><defs /><rect fill="rgb(255,170,170)" fill-opacity="1" height="38.0" rx="0.0" ry="0.0" stroke="rgb(0,0,255)" stroke-width="0.5mm" width="134.0" x="41.0" y="167.0" /><defs /><rect fill="rgb(255,213,170)" fill-opacity="1" height="90.0" rx="0.0" ry="0.0" stroke="rgb(0,0,255)" stroke-width="0.25mm" width="26.0" x="15.0" y="25.0" /><defs /><rect fill="rgb(170,170,255)" fill-opacity="1" height="6.0" rx="0.0" ry="0.0" stroke="rgb(0,0,255)" stroke-width="0.25mm" width="90.0" x="41.0" y="123.0" /><defs /><rect fill="rgb(170,170,255)" fill-opacity="1" height="6.0" rx="0.0" ry="0.0" stroke="rgb(0,0,255)" stroke-width="0.25mm" width="90.0" x="41.0" y="145.0" /><defs /><rect fill="rgb(170,170,255)" fill-opacity="1" height="6.0" rx="0.0" ry="0.0" stroke="rgb(0,0,255)" stroke-width="0.25mm" width="90.0" x="41.0" y="169.0" /><defs /><rect fill="rgb(255,170,170)" fill-opacity="1" height="6.0" rx="0.0" ry="0.0" stroke="rgb(0,0,255)" stroke-width="0.25mm" width="90.0" x="41.0" y="79.0" /><defs /><rect fill="rgb(255,170,170)" fill-opacity="1" height="6.0" rx="0.0" ry="0.0" stroke="rgb(0,0,255)" stroke-width="0.25mm" width="90.0" x="41.0" y="55.0" /><defs /><polygon fill="rgb(85,170,255)" fill-opacity="1" points="175.0,25.0 185.0,35.0 199.0,55.0 209.0,75.0 215.0,95.0 217.0,115.0 215.0,135.0 209.0,155.0 199.0,175.0 185.0,195.0 175.0,205.0 175.0,25.0" stroke="rgb(0,0,255)" stroke-width="0.5mm" /><defs /><rect fill="rgb(170,213,255)" fill-opacity="1" height="28.0" rx="0.0" ry="0.0" stroke="rgb(0,0,255)" stroke-width="0.25mm" width="6.0" x="175.0" y="101.0" /><defs /><rect fill="rgb(170,213,255)" fill-opacity="1" height="6.0" rx="0.0" ry="0.0" stroke="rgb(0,0,255)" stroke-width="0.25mm" width="54.0" x="131.0" y="79.0" /><defs /><rect fill="rgb(170,213,255)" fill-opacity="1" height="6.0" rx="0.0" ry="0.0" stroke="rgb(0,0,255)" stroke-width="0.25mm" width="62.0" x="131.0" y="55.0" /><defs /><rect fill="rgb(170,213,255)" fill-opacity="1" height="6.0" rx="0.0" ry="0.0" stroke="rgb(0,0,255)" stroke-width="0.25mm" width="58.0" x="131.0" y="145.0" /><defs /><polygon fill="rgb(255,170,170)" fill-opacity="1" points="175.0,167.0 203.0,167.0 189.0,189.0 179.0,201.0 174.0,205.0 175.0,167.0" stroke="rgb(255,170,170)" stroke-width="0.5mm" /><defs /><polyline fill="none" fill-opacity="1" points="41.0,191.0 187.0,191.0" stroke="rgb(255,255,255)" stroke-dasharray="8.0 4.0" stroke-width="0.5mm" /><defs /><rect fill="rgb(170,213,255)" fill-opacity="1" height="72.0" rx="0.0" ry="0.0" stroke="rgb(0,0,255)" stroke-width="0.25mm" width="6.0" x="183.0" y="79.0" /><defs /><rect fill="rgb(170,213,255)" fill-opacity="1" height="120.0" rx="0.0" ry="0.0" stroke="rgb(0,0,255)" stroke-width="0.25mm" width="6.0" x="191.0" y="55.0" /><defs /><rect fill="rgb(170,213,255)" fill-opacity="1" height="6.0" rx="0.0" ry="0.0" stroke="rgb(0,0,255)" stroke-width="0.25mm" width="60.0" x="131.0" y="169.0" /><defs /><polyline fill="none" fill-opacity="1" points="41.0,183.0 193.0,183.0" stroke="rgb(255,255,255)" stroke-dasharray="8.0 4.0" stroke-width="0.5mm" /><defs /><polyline fill="none" fill-opacity="1" points="41.0,173.0 199.0,173.0" stroke="rgb(255,255,255)" stroke-dasharray="8.0 4.0" stroke-width="0.5mm" /><defs /><g id="C1vap"><rect fill="url(#0)" height="20.0" rx="0.0" ry="0.0" stroke="rgb(0,0,255)" stroke-width="0.25mm" width="20.0" x="105.0" y="5.0" /><defs><pattern height="8" id="0" patternUnits="userSpaceOnUse" width="8" x="0" y="0"><rect fill="rgb(255,255,255)" height="8" width="8" x="0" y="0" /><path d="M0,0 l8,8" stroke="rgb(0,0,255)" stroke-width="1" /><path d="M8,0 l-8,8" stroke="rgb(0,0,255)" stroke-width="1" /></pattern></defs><g display="none" id="info"><text id="name">C1vap</text><text id="type">ThermoSysPro.WaterSteam.Connectors.FluidInletI</text><text id="classDesc">Internal water/steam inlet fluid connector</text><text id="desc">Vapor inlet</text></g></g><g id="C2ex"><rect fill="url(#1)" height="20.0" rx="0.0" ry="0.0" stroke="rgb(255,0,0)" stroke-width="0.25mm" width="20.0" x="105.0" y="205.0" /><defs><pattern height="8" id="1" patternUnits="userSpaceOnUse" width="8" x="0" y="0"><rect fill="rgb(255,255,255)" height="8" width="8" x="0" y="0" /><path d="M0,0 l8,8" stroke="rgb(255,0,0)" stroke-width="1" /><path d="M8,0 l-8,8" stroke="rgb(255,0,0)" stroke-width="1" /></pattern></defs><g display="none" id="info"><text id="name">C2ex</text><text id="type">ThermoSysPro.WaterSteam.Connectors.FluidOutletI</text><text id="classDesc">Internal water/steam outlet fluid connector</text><text id="desc">Condensed water extraction outlet</text></g></g><g id="Ce1"><rect fill="url(#2)" height="20.0" rx="0.0" ry="0.0" stroke="rgb(0,0,255)" stroke-width="0.25mm" width="20.0" x="5.0" y="150.0" /><defs><pattern height="8" id="2" patternUnits="userSpaceOnUse" width="8" x="0" y="0"><rect fill="rgb(255,255,255)" height="8" width="8" x="0" y="0" /><path d="M0,0 l8,8" stroke="rgb(0,0,255)" stroke-width="1" /><path d="M8,0 l-8,8" stroke="rgb(0,0,255)" stroke-width="1" /></pattern></defs><g display="none" id="info"><text id="name">Ce1</text><text id="type">ThermoSysPro.WaterSteam.Connectors.FluidInletI</text><text id="classDesc">Internal water/steam inlet fluid connector</text><text id="desc">Cooling water inlet</text></g></g><g id="Ce2"><rect fill="url(#3)" height="20.0" rx="0.0" ry="0.0" stroke="rgb(255,0,0)" stroke-width="0.25mm" width="20.0" x="5.0" y="61.0" /><defs><pattern height="8" id="3" patternUnits="userSpaceOnUse" width="8" x="0" y="0"><rect fill="rgb(255,255,255)" height="8" width="8" x="0" y="0" /><path d="M0,0 l8,8" stroke="rgb(255,0,0)" stroke-width="1" /><path d="M8,0 l-8,8" stroke="rgb(255,0,0)" stroke-width="1" /></pattern></defs><g display="none" id="info"><text id="name">Ce2</text><text id="type">ThermoSysPro.WaterSteam.Connectors.FluidOutletI</text><text id="classDesc">Internal water/steam outlet fluid connector</text><text id="desc">Cooling water outlet</text></g></g><g id="sortieReelle"><polygon fill="rgb(0,255,255)" fill-opacity="1" points="207.0,181.0 207.0,201.0 227.0,191.0 207.0,181.0" stroke="rgb(0,0,255)" stroke-width="0.25mm" /><defs /><g display="none" id="info"><text id="name">sortieReelle</text><text id="type">ThermoSysPro.InstrumentationAndControl.Connectors.OutputReal</text><text id="classDesc" /><text id="desc" /></g></g><g id="C1"><rect fill="url(#4)" height="20.0" rx="0.0" ry="0.0" stroke="rgb(0,0,255)" stroke-width="0.25mm" width="20.0" x="41.0" y="13.0" /><defs><pattern height="8" id="4" patternUnits="userSpaceOnUse" width="8" x="0" y="0"><rect fill="rgb(255,255,255)" height="8" width="8" x="0" y="0" /><path d="M0,0 l8,8" stroke="rgb(0,0,255)" stroke-width="1" /><path d="M8,0 l-8,8" stroke="rgb(0,0,255)" stroke-width="1" /></pattern></defs><g display="none" id="info"><text id="name">C1</text><text id="type">ThermoSysPro.WaterSteam.Connectors.FluidInletI</text><text id="classDesc">Internal water/steam inlet fluid connector</text><text id="desc">Extra water inlet</text></g></g></svg>